<svg width="53" height="59" viewBox="0 0 53 59" version="1.1" xmlns="http://www.w3.org/2000/svg" xmlns:xlink="http://www.w3.org/1999/xlink">
    <!-- Generator: sketchtool 55.2 (78181) - https://sketchapp.com -->
    <title>A78CB85D-8505-4A08-A80E-AB52F4445063@1x</title>
    <desc>Created with sketchtool.</desc>
    <g id="UI-design" stroke="none" stroke-width="1" fill="none" fill-rule="evenodd">
        <g id="Homepage" transform="translate(-685.000000, -126.000000)" fill-rule="nonzero">
            <g id="Group-25" transform="translate(660.000000, 32.000000)">
                <g id="Group-27" transform="translate(6.316327, 78.000000)">
                    <g id="Group-15" transform="translate(51.130389, 44.611676) rotate(8.000000) translate(-51.130389, -44.611676) translate(13.130389, 5.611676)">
                        <g transform="translate(38.187260, 39.273150) scale(-1, 1) rotate(-60.000000) translate(-38.187260, -39.273150) translate(8.687260, 13.273150)">
                            <path d="M3.05701281,38.8950438 C3.06161467,38.9343275 3.10303139,39.096084 2.953471,39.2185568 C2.11363188,38.4097742 1.39804293,36.8869521 1.08051472,35.4473191 C0.901042252,34.6500905 0.661745627,33.8436187 0.647940053,33.0394577 C0.624930762,31.5143248 0.433953648,30.1255295 0.887236678,29.0140311 C1.14033888,28.3993563 1.53839961,27.803168 2.55310934,27.8447626 C2.80160968,27.8540058 3.56551814,27.7361546 3.72658318,27.7269114 C4.30641731,26.0585084 5.0887332,24.383173 5.34183539,22.6523781 C5.39935862,22.2410544 6.15636429,22.486 6.63035568,22.5183513 C7.2170926,22.5622566 7.87055646,22.5714999 8.14666795,22.4929324 C8.80473367,22.3126894 9.00721543,23.0844991 8.99801171,23.5235526 C8.97500242,24.9192803 9.30633621,26.0492652 9.66067929,27.2347094 C10.9975191,27.1492095 12.4540072,26.938926 13.4917262,27.0544664 C13.9818241,27.1099258 14.0416483,27.8979111 14.2717412,28.2676403 C17.716232,27.863249 20.5992962,27.239331 23.914935,26.9135072 C23.5490873,26.5992373 24.1956483,26.134765 24.2163567,25.6425631 C24.2876855,23.9672276 24.9917698,22.5530134 25.8039978,21.3421503 C28.3626309,20.7436512 31.2664034,20.2722465 34.0781387,19.8563011 C35.8406504,19.5951799 37.6031621,19.2508696 39.457711,19.0359645 C39.9915265,18.9735727 39.7384243,18.3958708 39.7568317,18.093155 C39.7752392,17.7372907 39.8925865,17.3097913 39.7591327,16.953927 C38.581057,17.3814263 37.313245,17.0532917 36.926689,16.1867389 C36.7725267,15.837807 36.6505775,15.3548482 36.7863323,15.1792268 C37.4029813,14.4004847 38.3118483,13.9475665 39.4485072,13.7834991 C39.5681555,13.7673235 39.9132949,13.6748912 40.0099339,13.6610263 C40.0352442,13.1410947 40.2262213,12.549528 39.9662163,12.0365287 C38.8088489,12.0735016 37.9275931,11.8747722 37.4559026,11.1052733 C37.0601428,10.4536256 37.5203287,9.83895081 37.9483015,9.59400522 C38.5649505,9.2473841 39.3564701,9.07638435 40.2607352,8.97933043 C40.5713606,8.48481764 40.6610969,7.53045416 40.6219811,6.89960373 C40.6012727,6.58533391 40.9602176,5.68642981 40.5966708,5.71647031 C39.45541,5.81583503 38.5212328,5.15032248 38.1507832,4.28376969 C38.516631,4.22831031 38.0794544,3.96025665 38.0564451,3.82854062 C37.7228104,1.97989465 38.7766359,0.616518256 40.1963092,0.179775647 C41.75864,-0.30318311 43.5280545,0.318424095 43.9491245,1.70028695 C44.3863011,3.12836596 44.1884212,4.42703975 43.1507021,5.12952522 C42.8860953,5.3097682 42.4489188,5.54315975 42.4535206,5.88978087 C42.4627243,6.86956323 42.8285721,7.82623752 42.8239702,8.6881687 C43.8501846,8.69510112 44.8441859,8.62577689 45.5413675,9.02323578 C45.8865068,9.2173436 46.2270443,9.61711329 46.0705811,10.0122614 C45.7231409,10.8880574 44.7337413,11.3432865 43.5970824,11.565124 C43.5855777,11.8955694 43.6891195,12.2791635 43.6661102,12.8406897 C45.1870244,12.8684194 46.5491744,13.0740812 47.5454767,13.4461212 C48.0470792,13.6332966 48.0263709,14.3658226 47.7663659,14.7239978 C47.1842308,15.5189155 46.0199607,15.8031448 44.938524,16.1913605 C45.0765798,16.9585486 45.198529,17.6818313 45.5988907,18.3519655 L51.2407688,17.7765744 C52.2876915,17.9961011 53.1252297,18.573803 53.6728508,19.3409911 C54.5909215,19.1283968 55.4997885,18.6385056 56.2015719,19.0683158 C58.2332923,20.3092194 59.4320763,24.3901054 58.145857,27.2185337 C57.7431944,27.5905737 56.9148599,27.8170329 55.9093539,28.0273163 C55.8794418,28.0342488 55.6723582,28.0735325 55.548108,28.2815052 C55.1247371,28.9863014 54.6001253,29.5824898 54.1721525,30.2965293 L54.542602,32.4663775 C54.738181,32.459445 54.7496857,32.6073367 54.5518058,32.6373772 C55.1316399,36.8176279 55.9875855,40.9678381 56.491489,45.4762234 C56.7468921,47.7639228 55.5089923,49.0510426 54.2572868,50.1001491 C52.241673,51.7870386 48.0723894,51.9487951 46.0935904,50.2018247 C45.750752,49.1457857 45.2353439,48.1868006 44.8027692,47.1238291 C44.7613525,47.0198428 44.8073711,46.6524244 44.7935655,46.5299516 C45.2560522,46.261898 45.1202974,46.9250997 45.2606541,47.0753022 C45.1179965,46.2965601 44.9891445,45.217413 44.6278986,44.5842517 C44.9960473,45.1619536 44.7705562,44.2607387 44.9224175,44.1521308 C44.6278986,44.1521308 44.7590516,44.4386709 44.6555098,44.4964411 C44.5634726,44.3508602 44.5105512,44.0643201 44.2436434,44.101293 C40.656495,44.6212247 36.7932351,45.7650744 32.9782946,45.661088 C31.4113619,45.6194935 30.532407,44.0828065 30.3851476,42.4975926 C30.3506336,42.1301742 30.2678002,41.7627558 30.2056751,41.3699186 C29.9387673,41.3814726 30.0653184,41.1665675 30.1573556,41.1180406 C29.7523921,39.5998401 29.7132763,37.6587618 29.6005307,35.927967 C29.1035301,35.916413 28.6801591,36.0134669 28.229177,35.8124267 C28.2268761,35.6321837 28.0451027,35.5258865 27.74138,35.6067648 C27.5020834,35.6691566 27.1891571,35.7523457 26.931453,35.5189541 C26.4827718,35.1053196 26.0824102,34.6639553 25.7717847,34.1394021 C25.4956733,34.428253 25.6452336,33.8690376 25.5647011,33.7534972 C25.1919506,33.2081467 24.8675196,32.4756207 24.5062738,31.6298652 C23.4984668,32.2537832 22.421632,32.3831884 21.3632046,32.6212016 C19.4856465,33.0394577 17.5758753,33.3606599 15.7443358,33.6472001 C15.3117611,33.7165243 15.0908719,33.432295 14.8469734,33.2566736 C15.056358,34.608496 14.2717412,35.3618192 13.2938463,35.724616 C11.812048,36.276899 10.0863512,36.8661549 8.46879802,37.3352488 C8.44578873,37.1203437 8.28702462,37.356046 8.16967724,37.3768433 C6.94098111,37.5617079 6.14025779,38.2110448 4.75279755,38.3612473 C4.58943158,38.3774229 4.22818572,38.1186125 3.96818073,38.3681797 C3.70127296,38.6293009 3.33772616,38.8881114 3.05701281,38.8950438" id="Fill-278" fill="#0A0B09"/>
                            <path d="M54.7657922,24.2191057 C55.1454455,25.9961166 54.6599494,27.0868177 53.9466614,28.2699511 C52.5937151,29.5570709 50.2145544,30.0793134 48.1092043,30.6662585 L40.5805643,32.4294045 C41.3283663,27.8332085 39.8741791,23.0013101 37.5663472,20.5195029 C42.0301497,19.9672199 46.5238642,19.4588422 50.6609347,19.4426484 C51.5605979,19.4403558 52.2209646,19.8770984 52.7892941,20.4524894 C53.6981611,21.3721908 54.4229537,22.6154052 54.7657922,24.2191057" id="Fill-279" fill="#FFFFFE"/>
                            <path d="M13.2248184,30.8164609 C13.4203974,31.7823785 13.5239392,32.8938768 13.3881844,33.9684023 C11.8948814,35.160779 9.5663412,35.7754537 7.31603255,36.4039934 C6.38875813,36.6628038 5.52590972,36.9909385 4.52500557,37.1596274 C4.83102914,36.179845 4.72978826,35.0175089 4.58482973,33.9221862 C4.33402846,31.9603106 3.85773613,30.2410699 3.06621653,28.8545854 C6.08503549,28.5380048 9.58704956,28.3392753 12.7416233,28.2930592 C13.1143738,28.9978555 13.0407441,29.9175568 13.2248184,30.8164609" id="Fill-280" fill="#FFFFFE"/>
                            <path d="M34.4761995,28.0735325 C34.8581537,29.9129352 34.720098,32.075851 34.3657549,33.4669571 C32.8977621,33.672619 31.149056,34.1463345 29.7615958,34.1116724 C29.3750397,34.1024291 29.4279611,34.6939958 28.9654743,34.548415 C30.2056751,30.8025961 29.20247,25.307496 27.3962407,22.2549193 C28.6939647,21.9013657 29.9985915,21.7465416 31.4228666,21.561677 C31.7818115,21.5154609 31.8853533,22.3196219 31.9083626,22.354284 C32.9874984,24.1359166 33.9584904,25.7257521 34.4117735,28.0111407 C34.4002688,27.9579921 34.460093,27.9880326 34.4761995,28.0735325" id="Fill-281" fill="#FFFFFE"/>
                            <path d="M44.0204533,40.212204 C44.2367407,40.6743655 43.7213325,40.1659879 43.705226,40.6674331 C43.6200917,40.4571496 43.3969015,40.3832038 43.3899988,40.5819332 C40.7416294,41.2936619 37.7113058,42.0908905 34.720098,41.9707285 C34.1195555,41.9453096 33.3280359,41.6125534 33.3924619,40.8037708 C32.999003,39.1723407 32.9391789,37.0279114 32.9967021,35.3109814 C32.7366971,35.3456435 33.1324569,34.9574279 33.1899801,35.0336845 L37.412185,34.3774152 C37.8792736,34.8834821 38.288839,35.4681163 38.4407003,36.2514801 C38.4660105,36.3901285 38.0564451,36.4455879 38.4107882,36.600412 L38.6431821,40.6119737 C40.4379067,40.4825685 42.1705063,40.2445553 44.0204533,40.212204" id="Fill-282" fill="#FFFFFE"/>
                            <path d="M25.569303,28.2052485 C25.6153216,28.2121809 26.0133823,28.0273163 25.9328498,28.3993563 C25.6820485,29.603287 24.6949499,30.4259345 23.4478464,30.839569 C21.7934784,31.3849196 19.9941518,31.5952031 18.2638531,32.0342565 L14.9160013,32.3369722 C14.892992,31.2786224 14.4995332,30.4929479 14.4581164,29.5778681 C17.3342778,29.051004 20.2610596,28.6235047 23.0336791,28.223735 C23.7078514,28.3693158 24.4165375,28.1382351 25.1413302,28.1359243 C25.2080571,28.1359243 25.4174417,28.1890729 25.569303,28.2052485" id="Fill-283" fill="#FFFFFE"/>
                            <path d="M54.0386986,36.8869521 C53.8661289,36.7159524 53.8707307,37.0024925 53.6820546,37.0718167 C51.1717409,37.9961397 48.4842558,39.1353678 44.9845426,39.0475571 C45.0305612,39.0498679 44.8142739,38.9713004 44.7498478,38.7101792 C44.5427642,37.8413156 44.4691345,37.1850463 44.2643518,35.9926696 C47.5408748,36.0989668 50.7897867,35.1284276 53.5601053,34.0978075 C53.7487815,35.0891439 53.9512633,35.9002373 54.0386986,36.8869521" id="Fill-284" fill="#FFFFFE"/>
                            <path d="M55.2650938,45.5270612 C55.4031495,48.1752465 53.4864756,49.2520828 51.6158202,50.0862843 C51.362718,50.2018247 50.4446473,50.2203111 50.1731377,50.3219867 C49.8141928,50.4606351 49.0134694,50.2318652 48.6039041,50.1440545 C47.4028191,49.8875549 46.4341279,48.8707996 46.4386972,47.2786532 C46.4386972,46.9643834 46.855198,47.137694 46.919624,47.1330724 C50.0465866,46.9482078 52.5592012,46.4328977 55.0419036,45.5755881 C55.0603111,45.5686557 55.1109315,45.5386152 55.2650938,45.5270612" id="Fill-285" fill="#FFFFFE"/>
                            <path d="M54.9889823,42.4074711 L55.1247371,44.2792252 C52.9480582,45.4923991 49.6531277,46.1278711 46.1856276,46.1116955 C46.0452709,45.2405211 45.8312845,44.4525357 45.6334046,43.6599288 C48.4152279,43.4681317 50.8588146,42.9620649 53.1965585,42.2572686 C53.7027629,42.1047553 54.1146292,41.6749452 54.7888014,41.5617156 C54.8578293,41.7627558 54.8900423,42.06085 54.9245563,42.3497009 C54.9245563,42.3681874 54.9889823,42.4190252 54.9889823,42.4074711" id="Fill-286" fill="#FFFFFE"/>
                            <path d="M44.3080695,41.9014043 C44.356389,42.0816473 44.4691345,42.2457146 44.4553289,42.2618903 C43.7627493,43.0175243 42.4995392,43.3364157 41.2662412,43.5074155 C38.6845988,43.8632798 35.3896683,44.713657 32.8172296,44.4155628 C32.4651875,44.3762791 32.1913769,44.1313335 32.0510202,43.8424826 C30.9902919,41.6610803 30.8039167,38.2896122 30.7118795,35.5905891 C31.0386114,35.4288326 31.6621632,35.6622242 31.9727886,35.2532112 C31.8784505,36.6396957 31.993497,38.1833151 32.1706685,39.7384885 C31.8715478,39.7777722 32.1338537,39.9441504 32.1499602,40.008853 L32.7297943,42.1347958 C33.0933411,42.9458893 34.101148,43.1423079 35.1365661,43.1122674 C38.2842371,43.0198351 41.0384492,42.2018093 44.1723146,41.7812423 C44.2206342,41.7743099 44.3034676,41.880607 44.3080695,41.9014043" id="Fill-287" fill="#FFFFFE"/>
                            <path d="M45.0420658,40.3462309 C45.0006491,40.1059069 45.6426083,40.1659879 45.9670393,40.1498122 C46.1856276,40.140569 46.8367905,40.1544339 47.0438741,40.1035961 L49.9085309,39.4727457 C51.4018338,39.0799084 52.9365535,38.6015712 54.3240138,38.1324773 C54.4551667,38.9320167 54.6277364,39.6552994 54.6507457,40.5079874 C52.0852098,41.6033101 49.3885209,42.3358361 46.0935904,42.5507412 C45.8727012,42.564606 45.4010108,42.673214 45.3549922,42.2457146 C45.2905662,41.6264182 45.1525104,40.9863245 45.0420658,40.3462309" id="Fill-288" fill="#FFFFFE"/>
                            <path d="M53.2908966,31.9995944 C53.4128459,32.3392831 53.2586836,32.6142691 53.4128459,32.9308498 C50.8266016,34.0631454 47.8031807,34.9412522 44.3586899,34.9481847 C44.0365598,34.9481847 44.0365598,34.5391717 44.029657,34.2041047 C44.0227543,33.8852132 43.7581474,33.5131732 43.6569065,33.0926063 L51.8367094,31.139974 C52.0806079,31.0822038 52.7800904,30.7355827 52.9963777,30.6408396 C52.9756693,31.1030011 53.1298316,31.5744058 53.2908966,31.9995944" id="Fill-289" fill="#FFFFFE"/>
                            <path d="M37.1475781,26.4097511 C37.5065231,28.6581668 37.6192686,31.2693792 37.0532401,33.0856739 C37.0118233,33.2173899 36.3997762,33.263606 35.9280857,33.240498 C35.6496733,33.2220115 35.8498541,32.7621608 35.8774653,32.4756207 C36.3261465,27.8193437 34.4900051,24.2399029 32.6791739,21.3721908 C33.38786,21.0972047 34.6257599,21.0117048 34.8144361,21.7095687 C35.8567569,22.9250534 36.471105,24.6674023 37.2258097,26.5252915 C37.1475781,26.3334945 37.1452772,26.3889539 37.1475781,26.4097511" id="Fill-290" fill="#FFFFFE"/>
                            <path d="M43.4843369,38.5877064 C43.7949623,38.4398147 43.6546056,38.652409 43.7857586,38.8349628 C42.4236085,39.2578406 41.2225236,39.3017459 39.5566509,39.3133238 C39.4922249,39.3156108 39.5750583,38.9828545 39.5727574,38.952814 C39.5267388,37.404573 39.6394843,36.2353044 39.1862013,35.0336845 C39.1148725,34.8465091 38.8180527,34.3034694 38.7145109,34.1047399 C39.9455079,33.9383618 41.0729632,33.612538 42.442016,33.3791464 C42.603081,35.1815762 43.3278737,36.7760334 43.4843369,38.5877064" id="Fill-291" fill="#FFFFFE"/>
                            <path d="M39.6739983,26.6223454 C40.0789618,28.6882073 39.9777209,30.707853 39.6233778,32.5333909 C39.2069097,32.8153094 38.5212328,32.7760257 37.9851163,32.9123633 C38.1622879,32.3254182 38.3256538,31.6275544 38.3279548,30.8187717 C38.3394594,26.5899941 37.1636847,23.2092828 35.2884274,21.0348129 C36.0960536,20.5495434 36.859962,20.7921781 37.281032,21.3837448 C38.2290148,22.726324 39.0435437,24.2052408 39.5359425,26.0377111 C39.5704565,26.1532515 39.650989,26.5044942 39.6739983,26.6223454" id="Fill-292" fill="#FFFFFE"/>
                            <path d="M27.6585466,27.3895335 C28.0635101,29.5247196 28.1348389,31.9372026 27.6677503,33.7373216 C27.6332364,33.8690376 27.3249119,34.1786858 27.2834952,33.8898349 C27.2512822,33.6656865 27.0741106,33.6587541 26.9291521,33.7326999 C26.8877354,33.5316597 27.0971199,33.4785111 27.0004809,33.2936465 C26.6231285,32.5772962 26.0939148,31.812419 25.8776275,30.9343121 C26.8854344,30.4282453 27.580315,29.0579365 27.0534022,27.6691412 C26.8946381,27.250885 26.607022,26.6061698 26.0271879,26.7864127 C25.9052386,26.5807509 25.2333673,26.8603586 25.2517748,26.7378858 C25.4680621,25.3860634 25.5670021,24.1104977 26.2434752,23.0844991 C26.9291521,24.2121732 27.3824351,25.9291032 27.6585466,27.3895335" id="Fill-293" fill="#FFFFFE"/>
                            <path d="M57.6097405,22.474446 C58.0768291,23.9256331 57.9203659,25.6425631 57.333629,26.6200346 C57.105837,27.0036286 56.5306048,27.1237906 56.1210394,27.1492095 C56.6111373,24.6396726 55.8587335,21.7188119 54.3723333,20.1636385 C54.3723333,20.1636385 54.284898,19.9695307 54.2273748,19.953355 C55.1983668,19.3433019 56.1072338,20.013436 56.6916698,20.6581513 C57.1495547,21.1595965 57.3842495,21.7835145 57.6097405,22.474446" id="Fill-294" fill="#FFFFFE"/>
                            <path d="M8.30313113,26.2895891 C8.34684878,26.5206699 8.42968223,26.7378858 8.49640917,26.9897638 C8.24790883,27.0406016 8.35835343,27.1422771 8.61375656,27.2370202 L5.05421926,27.5905737 C5.38785398,26.194846 5.78361378,24.7113076 6.32433211,23.5004445 L7.93498247,23.5836336 L8.30313113,26.2895891" id="Fill-295" fill="#FFFFFE"/>
                            <path d="M42.6260903,2.22484024 C42.8377758,2.66389366 42.731933,3.11681193 42.7549423,3.55586534 C42.766447,3.71993267 42.6237894,3.80774335 42.4305113,3.75228398 C42.5524606,4.0087836 42.4374141,4.28145888 42.2234277,4.34616149 C41.825367,3.88631081 41.2961533,4.33460745 40.9211018,4.48018832 C40.4471105,4.66274211 39.812054,4.54026932 39.6647946,4.23293193 C39.03434,2.93425814 39.6118732,1.64251677 40.7347266,1.26354434 C40.9763241,1.18266608 41.4227044,1.21732819 41.7678438,1.32131453 C42.1797101,1.44609813 42.4374141,1.83662459 42.6260903,2.22484024" id="Fill-296" fill="#FFFFFE"/>
                            <path d="M3.17666113,33.1526873 C3.49418934,34.4374962 3.57702279,36.0458182 3.14904998,37.0302222 C3.07542025,37.1966003 3.08692489,37.4392351 2.96037379,37.6610726 C2.07911794,35.4057245 1.48087638,31.9626214 1.97097428,29.4207332 C2.63594278,30.4929479 2.97187844,31.6807029 3.1743602,33.1619305 C3.16515648,33.1110927 3.1743602,33.1503765 3.17666113,33.1526873" id="Fill-297" fill="#FFFFFE"/>
                            <path d="M43.3462811,15.0844837 C43.415309,15.225443 43.5303554,15.4819426 43.5602675,15.717645 C42.7710488,15.9117528 42.0094413,16.0850634 41.0844678,16.112793 C40.7784442,16.1243471 40.9049953,15.6922261 41.0706622,15.6113478 C40.9878288,14.5114035 41.1189818,13.2127297 41.1603985,12.0873665 C41.6090796,11.9048127 42.1106822,12.080434 42.5363541,11.8724614 C42.7204284,13.0371083 42.8860953,14.1462959 43.3462811,15.0844837" id="Fill-298" fill="#FFFFFE"/>
                            <path d="M44.1700137,18.0561821 C44.2045277,18.1925198 44.3333797,18.465195 44.1953239,18.4790599 L41.1880096,18.7933297 C40.8980926,18.8349242 41.0177409,17.8505202 40.9188009,17.3768047 C40.8451712,17.025562 41.2547366,16.9423729 41.4756258,16.9215757 C42.3522797,16.833765 43.1253919,16.7528867 43.7949623,16.4825222 C43.8777957,16.8152785 44.0825784,17.7488447 44.1700137,18.0561821" id="Fill-299" fill="#FFFFFE"/>
                            <path d="M47.1842308,14.2225525 C46.5376697,14.7586599 45.5781823,15.1514971 44.6002875,15.4542129 C44.3655927,14.8487814 44.3195741,14.1116338 43.9790366,13.6587155 C44.9615333,13.4438104 45.9325254,13.6610263 46.7470543,13.9313908 C46.8275868,13.9591205 47.0323695,14.1047014 47.1842308,14.2225525" id="Fill-300" fill="#FFFFFE"/>
                            <path d="M39.9616144,14.5345116 C39.9409061,14.7309302 39.9869246,15.8262529 39.9063921,16.0758201 C38.9837196,16.3970224 37.8884773,16.2861036 37.5341342,15.6367667 C38.0564451,15.0082271 38.8663722,14.6523627 39.9616144,14.5345116" id="Fill-301" fill="#FFFFFE"/>
                            <path d="M39.9869246,9.83201839 C40.2239203,9.77886981 40.2285222,9.93138311 40.2147166,10.0746532 C40.1732999,10.5160174 40.1640962,11.012841 40.1134757,11.3155568 C39.4393035,11.276273 38.7651313,11.2277461 38.286538,10.9342735 C38.0909591,10.8141116 38.1185702,10.4120311 38.3739734,10.3219096 L39.9869246,9.83201839" id="Fill-302" fill="#FFFFFE"/>
                            <path d="M45.2721588,9.76500497 C45.5298628,10.0469235 45.0949872,10.1393558 44.9638343,10.2294773 C44.5220559,10.5414363 43.9399208,10.7401657 43.3992025,10.8626385 C43.3071653,10.4374499 43.2381374,9.89209938 43.0816743,9.44842435 C43.7880595,9.39296497 44.485241,9.47846484 45.1433067,9.59862683 C45.1640151,9.60093764 45.2399457,9.73034286 45.2721588,9.76500497" id="Fill-303" fill="#FFFFFE"/>
                            <path d="M42.2027193,10.7193684 C42.2303305,10.8765034 42.2257286,11.0498139 42.3039602,11.1977056 L41.3099589,11.2785839 C41.2892505,11.0521247 41.1166808,10.2988015 41.2156208,10.1162477 C41.4434128,9.70030236 41.5423527,9.18268149 41.5285471,8.57493913 C41.5193434,8.14050733 41.6804084,8.92618186 41.6896122,9.09487081 C41.7103205,9.55934311 42.1106822,10.0307478 42.0554599,10.5668552 C42.0554599,10.5899632 42.1958166,10.6777739 42.2027193,10.7193684" id="Fill-304" fill="#FFFFFE"/>
                        </g>
                    </g>
                </g>
            </g>
        </g>
    </g>
</svg>