<svg width="59" height="79" viewBox="0 0 59 79" version="1.1" xmlns="http://www.w3.org/2000/svg" xmlns:xlink="http://www.w3.org/1999/xlink">
    <!-- Generator: sketchtool 55.2 (78181) - https://sketchapp.com -->
    <title>19C59DD7-68AA-473D-B764-DF9621F8076F@1x</title>
    <desc>Created with sketchtool.</desc>
    <g id="UI-design" stroke="none" stroke-width="1" fill="none" fill-rule="evenodd">
        <g id="Homepage" transform="translate(-815.000000, -1984.000000)">
            <g id="Group-23" transform="translate(215.000000, 1964.000000)">
                <g id="Group-14" transform="translate(601.000000, 21.000000)">
                    <path d="M13.8844545,32.7530511 C18.6411901,32.7530511 22.8240272,33.3100812 27.6028358,33.9437668 L27.77942,33.9642083 C29.3631591,34.1737334 30.9358617,34.2452785 32.4589,34.3168237 C35.4994584,34.4496933 38.6393453,34.5978939 41.773714,35.8754859 C42.7394086,36.2740946 44.0361985,36.5245026 45.283324,36.7646899 C45.8903321,36.877118 46.5194131,36.9997668 47.1153846,37.1428571 C46.7235885,36.4171849 46.1717631,35.6097468 45.7137479,34.9453989 C45.3164336,34.362817 44.935674,33.8108973 44.676316,33.3509642 C42.7283721,29.9065762 40.7142091,26.0635795 38.3523961,21.2700544 C37.1494165,18.8375193 36.0292108,16.333439 34.9421146,13.9111246 C34.0978217,12.0305092 33.2204192,10.0732383 32.3209436,8.1824022 C32.0339944,7.57426842 31.7801547,6.77705102 31.5097602,5.92872995 C31.0627815,4.53359951 30.5109561,2.79607442 29.793583,2.11128512 C29.5176702,1.85576672 29.3134948,1.84043562 29.1313924,1.86598746 C28.7064868,1.92220151 27.5035072,2.35658278 25.3127601,5.27460286 C23.8835321,7.18077009 22.6088153,9.36800755 21.8472961,10.6762617 C21.6044929,11.0799808 21.4168722,11.401934 21.2899524,11.6063487 C20.0428268,13.5840611 18.7791465,15.6282082 17.5540939,17.6059206 C14.3590244,22.7725026 11.0811811,28.0770645 7.53846154,33.126108 C8.49311961,33.0647836 9.38707688,32.9932384 10.0768587,32.9370244 C11.1915462,32.8501481 12.0634304,32.7786029 12.6373289,32.7683822 C13.0567163,32.7581615 13.4761037,32.7530511 13.8844545,32.7530511 Z M48.0521418,39 C47.9277126,39 47.8032834,38.9746738 47.6788542,38.9240215 C46.79162,38.5593245 45.6284775,38.3364541 44.3950055,38.0933228 C43.080384,37.8349958 41.7170729,37.5716035 40.5809802,37.1005366 C37.8273081,35.9659237 35.057406,35.8342276 32.1197951,35.7025315 C30.583365,35.6316182 28.9982453,35.5607049 27.353616,35.3378345 L27.1859071,35.3125083 C22.1708696,34.6489624 17.8483076,34.0664603 12.8224502,34.167765 C12.3139135,34.1778955 11.4429091,34.2488088 10.4312457,34.3349178 C9.04088469,34.446353 7.69921339,34.5476577 6.48197128,34.6033753 C5.97884454,35.2973126 5.48112777,35.9861847 4.97259107,36.6649263 C4.66963303,37.0650799 4.08535682,37.1663846 3.65796959,36.8877967 C3.23058236,36.6041435 3.12238306,36.0520328 3.4253411,35.6569444 C3.66878952,35.3226388 3.91764791,34.9883332 4.16109633,34.6540277 C2.50023709,34.6438972 1.20184551,34.4716792 0.449860384,34.0360689 C0.00624326008,33.7828071 -0.134415828,33.2408269 0.141492383,32.8254775 C0.41199063,32.4101282 0.996266842,32.2784321 1.43988397,32.5316939 C2.02416018,32.8710647 3.65255962,32.9267822 5.44325802,32.8761299 C9.17613382,27.5930889 12.6222815,21.9656119 15.9656398,16.5002225 C17.1612421,14.534911 18.405534,12.5088166 19.633596,10.5384399 C19.7472053,10.3611566 19.9257341,10.0521773 20.1421327,9.66721934 C22.9120348,4.87550625 25.8604657,0.387707312 28.6898773,0.0230103326 C29.5392418,-0.0833596197 30.3236867,0.180032643 30.9512427,0.792926178 C31.979136,1.78064716 32.5688222,3.64971918 33.0881788,5.3060513 C33.3370372,6.08609761 33.5696657,6.82055681 33.8022942,7.32201516 C34.6949384,9.21641335 35.5605328,11.1614639 36.3936674,13.0406664 C37.4432006,15.4263925 38.5414235,17.8931623 39.7045659,20.2738232 C42.003801,24.9946229 43.9622083,28.7783541 45.861106,32.1619316 C46.0829146,32.55702 46.4291523,33.0686088 46.7970299,33.6156543 C47.8032834,35.0947032 48.9339661,36.766231 48.9988857,38.0781271 C49.0151156,38.3820412 48.8528166,38.6707597 48.5931383,38.8429777 C48.4308394,38.9442824 48.2414906,39 48.0521418,39 L48.0521418,39 Z" id="Fill-184" stroke="#F6BBD4" fill="#F6BBD4"/>
                    <g id="Group-12" transform="translate(0.000000, 15.000000)">
                        <path d="M20.2013895,23.7459104 C14.4654439,23.7459104 8.06684669,23.2715575 0.777679598,22.3191457 C0.279635755,22.2524398 -0.0622417988,21.8447928 0.00951028034,21.4074987 C0.08548307,20.9702045 0.549761229,20.6700281 1.04780507,20.7330281 C10.0843463,21.9189104 17.7238324,22.3487928 24.3967758,22.0523222 C27.2415347,21.9263222 30.1369421,21.6928516 32.9437146,21.459381 C38.405314,21.018381 44.0610661,20.5551457 49.6577283,20.8701457 C50.1599929,20.8960869 50.5440775,21.2740869 50.5145325,21.7187928 C50.4807669,22.1597928 50.041813,22.4896163 49.5437691,22.4636751 C44.0863904,22.1634987 38.5066111,22.6156163 33.1083223,23.0566163 C30.2888877,23.2826751 27.368156,23.5235575 24.4896314,23.6495575 C23.1052383,23.7125575 21.6744175,23.7459104 20.2013895,23.7459104" id="Fill-145" fill="#F6BBD4"/>
                        <path d="M11.5805359,53.5271629 C9.10829331,53.5271629 6.66934694,53.2492217 4.3219651,52.4598688 C3.85998038,52.3005158 3.62274498,51.8372805 3.80171203,51.4259276 C3.97651706,51.0108688 4.49677013,50.8033393 4.95875485,50.9626923 C9.59525018,52.5265746 14.8643732,51.8558099 19.9628533,51.2072805 C22.3060731,50.907104 24.7366954,50.5958099 27.0591051,50.5142805 C31.7455448,50.3475158 37.5765411,50.1362805 43.1869502,50.2919276 C44.5937145,50.3326923 46.0171269,50.4290452 47.394757,50.5216923 C49.3550706,50.6625158 51.3778145,50.7996335 53.3422901,50.7662805 C53.841733,50.7551629 54.2496114,51.1072217 54.2580645,51.5519276 C54.2662595,51.9929276 53.8708672,52.3598099 53.3755863,52.3672217 C51.3237082,52.4005746 49.255182,52.2597511 47.2532482,52.1189276 C45.9005902,52.0299864 44.4979879,51.9299276 43.1328439,51.8928688 C37.5848652,51.7372217 31.787165,51.948457 27.1298595,52.1115158 C24.8990144,52.1930452 22.622387,52.482104 20.2167368,52.7896923 C17.3574259,53.1565746 14.4440088,53.5271629 11.5805359,53.5271629" id="Fill-146" fill="#F6BBD4"/>
                        <path d="M26.9653538,53.7352941 C26.5455186,53.7352941 26.1342516,53.6102072 25.778677,53.3725421 C21.0405378,50.1661482 18.3887222,42.6234089 16.4480558,37.1154162 C15.9682442,35.7603083 15.5184209,34.4802525 15.1157219,33.4878965 C14.6916027,32.4496753 15.2099706,31.2780281 16.2766945,30.8652414 C17.3391344,30.4524546 18.5429473,30.9569718 18.9713505,31.9951929 C19.4126058,33.0792793 19.8752812,34.4010308 20.3722289,35.8061735 C21.7645392,39.7589191 23.5681166,44.8791424 26.0657071,48.0438407 C26.1213995,47.8353626 26.1728079,47.6268844 26.2285003,47.4100671 C26.4469859,46.5553067 26.6654715,45.6671898 26.9782059,44.7832425 C28.8289076,39.4670497 31.6478005,34.1800439 34.3681607,29.0723293 C35.092162,27.7172214 35.769039,26.4371655 36.441632,25.1529401 C39.6418038,18.981987 43.5745449,11.89373 48.4626252,6.03966362 C48.702531,5.75196378 48.976709,5.39755093 49.2680231,5.02229026 C50.8488309,2.97503486 52.8194855,0.427431903 55.6169582,0.0229842971 C56.7436586,-0.143798221 57.8060985,0.615062235 57.9774597,1.71582685 C58.144537,2.82076103 57.3648432,3.85064308 56.2338588,4.01325603 C55.1200105,4.18003855 53.5349188,6.22729396 52.5838637,7.45314546 C52.2668454,7.85759307 51.9712472,8.24119286 51.679933,8.59143614 C47.0403266,14.1411244 43.2446745,20.9958859 40.1473195,26.9708696 C39.4704425,28.2759428 38.7464411,29.6268812 38.056712,30.9319544 C35.4006123,35.9104125 32.658832,41.0556532 30.906663,46.0799766 C30.6539051,46.8013109 30.4611237,47.564341 30.2554902,48.3732362 C29.9041996,49.7742093 29.5400569,51.2252172 28.8203395,52.6178512 C28.5504455,53.1432162 28.0577819,53.526816 27.4751535,53.6727507 C27.3080763,53.7144463 27.136715,53.7352941 26.9653538,53.7352941" id="Fill-34" fill="#12110C"/>
                        <path d="M7.80536104,57.4411765 C6.11472986,57.4411765 4.42409868,57.3879683 2.73776937,57.2622037 C2.22584797,57.228344 1.83868052,56.7301224 1.87309541,56.1545072 C1.90320843,55.5740549 2.3419982,55.1435528 2.85822146,55.1774125 C9.60784059,55.6804711 16.5080248,55.0081139 23.1845123,54.355105 C26.6819249,54.0116708 30.2997896,53.6585623 33.8703338,53.4747524 C36.5073743,53.3441506 39.1874334,53.1361552 41.7771534,52.937834 C43.2182767,52.8265806 44.7024186,52.7153273 46.1650511,52.6137481 C47.06414,52.5508658 48.0019456,52.5218432 48.9053363,52.4976577 C50.9573237,52.4396124 53.0910465,52.3767301 55.0010726,51.9075312 C55.5000884,51.7817665 55.9948024,52.1397121 56.1066507,52.700816 C56.2184991,53.266757 55.9001614,53.8230238 55.3968438,53.9487884 C53.3147433,54.4615213 51.0949833,54.5292407 48.9483549,54.587286 C48.019153,54.6114715 47.1458753,54.6404941 46.2768995,54.6985393 C44.8185688,54.8001185 43.3387288,54.9113718 41.9062092,55.0226252 C39.3035836,55.2209464 36.6149208,55.4241047 33.9520692,55.5643807 C30.4288454,55.7433535 26.8238863,56.096462 23.3436812,56.4350591 C18.2545802,56.9284436 13.0278197,57.4411765 7.80536104,57.4411765" id="Fill-147" fill="#F6BBD4"/>
                        <path d="M2.77050933,25.1145181 C2.28785241,25.1145181 1.89257304,24.7809887 1.87176886,24.3474005 C1.85096469,23.9064005 2.23792239,23.5358122 2.73306181,23.5135769 C19.546998,22.8984005 36.6272276,23.0318122 49.6298385,23.2171064 C50.1249779,23.2245181 50.5202573,23.5876946 50.516129,24.0286946 C50.5077748,24.4696946 50.1083346,24.8180475 49.617356,24.8180475 C49.6131952,24.8180475 49.6048735,24.8180475 49.6007127,24.8180475 C36.6230668,24.6327534 19.5761238,24.4993416 2.80795685,25.1108122 C2.79547434,25.1145181 2.778831,25.1145181 2.77050933,25.1145181" id="Fill-148" fill="#F6BBD4"/>
                        <path d="M47.7756839,63 C47.2966663,63 46.9062066,62.5952509 46.9021812,62.0882495 C46.8699784,57.2312609 46.3627833,52.2464568 45.8797403,47.4278128 C45.4892806,43.5976086 45.0867448,39.6310679 44.9217051,35.7284349 C44.7043357,30.6115548 44.2655717,25.447809 43.8388838,20.4502233 C43.5571087,17.114239 43.2592322,13.6632208 43.0338121,10.2505472 C43.0056346,9.74354576 43.3638915,9.30045206 43.8429091,9.26636793 C44.3179014,9.23654431 44.7365386,9.61146975 44.7727668,10.1184712 C44.9941615,13.5141027 45.2880127,16.9565999 45.5697877,20.2883237 C45.9964757,25.3029514 46.4392651,30.4922603 46.6566344,35.6474851 C46.8216741,39.4904708 47.2201845,43.4271879 47.6066189,47.231829 C48.0977126,52.0930782 48.6089331,57.124748 48.6451613,62.075468 C48.6451613,62.5824694 48.2627523,63 47.7797093,63 L47.7756839,63" id="Fill-149" fill="#F6BBD4"/>
                        <path d="M44.0092442,57.4411765 C43.9980184,57.4411765 43.9867926,57.4411765 43.9755668,57.4411765 C43.5265345,57.4246176 43.1822764,57.0023658 43.2009861,56.5097387 C43.3618893,52.494207 42.8305345,48.2220125 42.3141474,44.0905685 C42.0896313,42.2897888 41.8576313,40.431053 41.6929861,38.6385528 C40.8996958,30.090024 41.0942764,23.5327021 42.3216313,17.3769334 C42.4151797,16.8967255 42.8455022,16.590386 43.2833087,16.6980188 C43.7173732,16.8056516 43.9942764,17.2775801 43.900728,17.757788 C42.7107926,23.7231294 42.5236958,30.1065829 43.2982764,38.456405 C43.4629216,40.2157874 43.6799538,41.9793096 43.9119538,43.8463248 C44.4395668,48.0564235 44.9784055,52.4072728 44.8175022,56.5883935 C44.7987926,57.0686014 44.4433087,57.4411765 44.0092442,57.4411765" id="Fill-150" fill="#F6BBD4"/>
                        <path d="M10.3597049,57.4411765 C9.90318833,57.4411765 9.51875334,57.0696254 9.49472615,56.5895313 C9.09427304,48.7410361 8.46155712,41.514576 7.62060558,35.1230621 C7.15607997,31.5787151 6.75963139,27.9842713 6.3751964,24.50672 C6.29110124,23.7427442 6.20700609,22.9787683 6.12291094,22.2189672 C6.08286563,21.8390666 6.002775,21.4090693 5.92268438,20.9540236 C5.5903083,19.1171417 5.13379175,16.5956039 6.9158081,15.0342543 C7.28422496,14.7128 7.82483667,14.7670715 8.13318556,15.1427974 C8.44153446,15.5268727 8.39348009,16.0946361 8.02506322,16.4160905 C7.09200747,17.2343378 7.27221137,18.6746202 7.62060558,20.620045 C7.70870526,21.1084886 7.79680495,21.5677091 7.84085479,22.0102306 C7.92494995,22.7742065 8.01304963,23.5381823 8.09314025,24.3021582 C8.47757524,27.7671853 8.87001929,31.3532796 9.3345449,34.8725782 C10.179501,41.3225383 10.820226,48.5949205 11.2246836,56.4935124 C11.2487108,56.9903055 10.8842985,57.4119534 10.4037547,57.4411765 C10.3877366,57.4411765 10.375723,57.4411765 10.3597049,57.4411765" id="Fill-151" fill="#F6BBD4"/>
                        <path d="M12.1142822,51.8823529 C11.6088628,51.8823529 11.1762965,51.5264176 11.1398699,51.0532329 C10.8530102,47.8749392 10.2701841,44.6547708 9.71012472,41.5434767 C9.23202521,38.9011799 8.73571239,36.1667586 8.42153272,33.4407122 C8.13467302,30.9156647 8.01173314,28.3613048 7.89789993,25.8906945 C7.79317337,23.7969569 7.69300014,21.6320322 7.48810035,19.5173572 C7.43801374,19.0190477 7.83870666,18.5793628 8.37599943,18.5333006 C8.91784554,18.4872383 9.39594505,18.8557362 9.44603166,19.3540457 C9.65548478,21.5147829 9.76021134,23.7006449 9.86038456,25.8111324 C9.97877111,28.2524305 10.0971577,30.7816655 10.379464,33.2522758 C10.6890904,35.923885 11.1762965,38.628994 11.6498427,41.2503534 C12.2190088,44.3951473 12.8063882,47.653003 13.0932479,50.9066712 C13.1387812,51.4007933 12.7380883,51.8404782 12.1962421,51.8781655 C12.1643688,51.8823529 12.1416022,51.8823529 12.1142822,51.8823529" id="Fill-152" fill="#F6BBD4"/>
                    </g>
                </g>
            </g>
        </g>
    </g>
</svg>