<svg width="58" height="1448" viewBox="0 0 58 1448" version="1.1" xmlns="http://www.w3.org/2000/svg" xmlns:xlink="http://www.w3.org/1999/xlink">
    <!-- Generator: Sketch 55.2 (78181) - https://sketchapp.com -->
    <title>Group 14@1x</title>
    <desc>Created with Sketch.</desc>
    <g id="UI-design" stroke="none" stroke-width="1" fill="none" fill-rule="evenodd">
        <g id="0_elements" transform="translate(-1130.000000, -6170.000000)">
            <g id="Group-14" transform="translate(1094.214535, 6169.581382)">
                <g id="Group-37-Copy" transform="translate(51.500000, 171.000000) scale(-1, 1) rotate(-186.000000) translate(-51.500000, -171.000000) translate(18.000000, 3.000000)">
                    <path d="M9.87249413,313.614137 C12.1884941,311.123137 12.2614941,308.195137 13.8194941,305.568137 C15.0154941,303.550137 17.1104941,301.716137 17.8724941,299.614137" id="Stroke-3" stroke="#F6BBD4" stroke-width="2" transform="translate(13.872494, 306.614137) rotate(-24.000000) translate(-13.872494, -306.614137) "/>
                    <path d="M28.7323,264.9411 L28.7323,254.9411 L28.7323,264.9411 Z" id="Fill-5" fill="#F6BBD4"/>
                    <path d="M22.4527978,274.653076 L22.4527978,264.653076" id="Stroke-7" stroke="#F6BBD4" stroke-width="2"/>
                    <path d="M1.78594317,335.509038 L5.39667964,324.855492" id="Stroke-7-Copy" stroke="#F6BBD4" stroke-width="2"/>
                    <path d="M34.7324,236.9411 C34.0284,232.4551 37.2924,230.7501 38.3974,226.9871 C39.6064,222.8751 37.1944,218.3381 40.7324,214.9411" id="Fill-9" fill="#F6BBD4"/>
                    <path d="M34.7324,236.9411 C34.0284,232.4551 37.2924,230.7501 38.3974,226.9871 C39.6064,222.8751 37.1944,218.3381 40.7324,214.9411" id="Stroke-11" stroke="#F6BBD4" stroke-width="2"/>
                    <path d="M48.7324,166.9411 C49.7334,160.0991 53.4824,154.0011 52.7324,146.9411" id="Fill-13" fill="#F6BBD4"/>
                    <path d="M48.7324,166.9411 C49.7334,160.0991 53.4824,154.0011 52.7324,146.9411" id="Stroke-15" stroke="#F6BBD4" stroke-width="2"/>
                    <path d="M52.7324,110.9411 C52.7634,108.4181 52.2214,105.4131 52.6294,102.9411 C53.1204,99.9611 55.2294,98.1571 54.7324,94.9411" id="Fill-17" fill="#F6BBD4"/>
                    <path d="M52.7324,110.9411 C52.7634,108.4181 52.2214,105.4131 52.6294,102.9411 C53.1204,99.9611 55.2294,98.1571 54.7324,94.9411" id="Stroke-19" stroke="#F6BBD4" stroke-width="2"/>
                    <path d="M56.7324,66.9411 C56.6594,62.9841 57.4974,60.5671 58.2944,56.9981 C59.0334,53.6881 57.4814,49.2221 60.7324,46.9411" id="Fill-21" fill="#F6BBD4"/>
                    <path d="M56.7324,66.9411 C56.6594,62.9841 57.4974,60.5671 58.2944,56.9981 C59.0334,53.6881 57.4814,49.2221 60.7324,46.9411" id="Stroke-23" stroke="#F6BBD4" stroke-width="2"/>
                    <path d="M62.7324,18.9411 C63.8904,12.9021 65.2234,6.9021 66.7324,0.9411" id="Fill-25" fill="#F6BBD4"/>
                    <path d="M59.4579771,18.9630894 C60.6159771,12.9240894 61.9489771,6.9240894 63.4579771,0.963089396" id="Stroke-27" stroke="#F6BBD4" stroke-width="2" transform="translate(61.457977, 9.963089) rotate(-15.000000) translate(-61.457977, -9.963089) "/>
                </g>
                <g id="Group-37-Copy-4" transform="translate(67.285465, 1278.418618) scale(-1, 1) rotate(-186.000000) translate(-67.285465, -1278.418618) translate(33.785465, 1110.418618)">
                    <path d="M9.87249413,313.614137 C12.1884941,311.123137 12.2614941,308.195137 13.8194941,305.568137 C15.0154941,303.550137 17.1104941,301.716137 17.8724941,299.614137" id="Stroke-3" stroke="#F6BBD4" stroke-width="2" transform="translate(13.872494, 306.614137) rotate(-24.000000) translate(-13.872494, -306.614137) "/>
                    <path d="M28.7323,264.9411 L28.7323,254.9411 L28.7323,264.9411 Z" id="Fill-5" fill="#F6BBD4"/>
                    <path d="M22.4527978,274.653076 L22.4527978,264.653076" id="Stroke-7" stroke="#F6BBD4" stroke-width="2"/>
                    <path d="M1.78594317,335.509038 L5.39667964,324.855492" id="Stroke-7-Copy" stroke="#F6BBD4" stroke-width="2"/>
                    <path d="M34.7324,236.9411 C34.0284,232.4551 37.2924,230.7501 38.3974,226.9871 C39.6064,222.8751 37.1944,218.3381 40.7324,214.9411" id="Fill-9" fill="#F6BBD4"/>
                    <path d="M34.7324,236.9411 C34.0284,232.4551 37.2924,230.7501 38.3974,226.9871 C39.6064,222.8751 37.1944,218.3381 40.7324,214.9411" id="Stroke-11" stroke="#F6BBD4" stroke-width="2"/>
                    <path d="M48.7324,166.9411 C49.7334,160.0991 53.4824,154.0011 52.7324,146.9411" id="Fill-13" fill="#F6BBD4"/>
                    <path d="M48.7324,166.9411 C49.7334,160.0991 53.4824,154.0011 52.7324,146.9411" id="Stroke-15" stroke="#F6BBD4" stroke-width="2"/>
                    <path d="M52.7324,110.9411 C52.7634,108.4181 52.2214,105.4131 52.6294,102.9411 C53.1204,99.9611 55.2294,98.1571 54.7324,94.9411" id="Fill-17" fill="#F6BBD4"/>
                    <path d="M52.7324,110.9411 C52.7634,108.4181 52.2214,105.4131 52.6294,102.9411 C53.1204,99.9611 55.2294,98.1571 54.7324,94.9411" id="Stroke-19" stroke="#F6BBD4" stroke-width="2"/>
                    <path d="M56.7324,66.9411 C56.6594,62.9841 57.4974,60.5671 58.2944,56.9981 C59.0334,53.6881 57.4814,49.2221 60.7324,46.9411" id="Fill-21" fill="#F6BBD4"/>
                    <path d="M56.7324,66.9411 C56.6594,62.9841 57.4974,60.5671 58.2944,56.9981 C59.0334,53.6881 57.4814,49.2221 60.7324,46.9411" id="Stroke-23" stroke="#F6BBD4" stroke-width="2"/>
                    <path d="M62.7324,18.9411 C63.8904,12.9021 65.2234,6.9021 66.7324,0.9411" id="Fill-25" fill="#F6BBD4"/>
                    <path d="M59.4579771,18.9630894 C60.6159771,12.9240894 61.9489771,6.9240894 63.4579771,0.963089396" id="Stroke-27" stroke="#F6BBD4" stroke-width="2" transform="translate(61.457977, 9.963089) rotate(-15.000000) translate(-61.457977, -9.963089) "/>
                </g>
                <g id="Group-37-Copy-3" transform="translate(67.285465, 909.418618) rotate(-186.000000) translate(-67.285465, -909.418618) translate(33.785465, 741.418618)">
                    <path d="M9.87249413,313.614137 C12.1884941,311.123137 12.2614941,308.195137 13.8194941,305.568137 C15.0154941,303.550137 17.1104941,301.716137 17.8724941,299.614137" id="Stroke-3" stroke="#F6BBD4" stroke-width="2" transform="translate(13.872494, 306.614137) rotate(-24.000000) translate(-13.872494, -306.614137) "/>
                    <path d="M28.7323,264.9411 L28.7323,254.9411 L28.7323,264.9411 Z" id="Fill-5" fill="#F6BBD4"/>
                    <path d="M22.4527978,274.653076 L22.4527978,264.653076" id="Stroke-7" stroke="#F6BBD4" stroke-width="2"/>
                    <path d="M1.78594317,335.509038 L5.39667964,324.855492" id="Stroke-7-Copy" stroke="#F6BBD4" stroke-width="2"/>
                    <path d="M34.7324,236.9411 C34.0284,232.4551 37.2924,230.7501 38.3974,226.9871 C39.6064,222.8751 37.1944,218.3381 40.7324,214.9411" id="Fill-9" fill="#F6BBD4"/>
                    <path d="M34.7324,236.9411 C34.0284,232.4551 37.2924,230.7501 38.3974,226.9871 C39.6064,222.8751 37.1944,218.3381 40.7324,214.9411" id="Stroke-11" stroke="#F6BBD4" stroke-width="2"/>
                    <path d="M48.7324,166.9411 C49.7334,160.0991 53.4824,154.0011 52.7324,146.9411" id="Fill-13" fill="#F6BBD4"/>
                    <path d="M48.7324,166.9411 C49.7334,160.0991 53.4824,154.0011 52.7324,146.9411" id="Stroke-15" stroke="#F6BBD4" stroke-width="2"/>
                    <path d="M52.7324,110.9411 C52.7634,108.4181 52.2214,105.4131 52.6294,102.9411 C53.1204,99.9611 55.2294,98.1571 54.7324,94.9411" id="Fill-17" fill="#F6BBD4"/>
                    <path d="M52.7324,110.9411 C52.7634,108.4181 52.2214,105.4131 52.6294,102.9411 C53.1204,99.9611 55.2294,98.1571 54.7324,94.9411" id="Stroke-19" stroke="#F6BBD4" stroke-width="2"/>
                    <path d="M56.7324,66.9411 C56.6594,62.9841 57.4974,60.5671 58.2944,56.9981 C59.0334,53.6881 57.4814,49.2221 60.7324,46.9411" id="Fill-21" fill="#F6BBD4"/>
                    <path d="M56.7324,66.9411 C56.6594,62.9841 57.4974,60.5671 58.2944,56.9981 C59.0334,53.6881 57.4814,49.2221 60.7324,46.9411" id="Stroke-23" stroke="#F6BBD4" stroke-width="2"/>
                    <path d="M62.7324,18.9411 C63.8904,12.9021 65.2234,6.9021 66.7324,0.9411" id="Fill-25" fill="#F6BBD4"/>
                    <path d="M59.4579771,18.9630894 C60.6159771,12.9240894 61.9489771,6.9240894 63.4579771,0.963089396" id="Stroke-27" stroke="#F6BBD4" stroke-width="2" transform="translate(61.457977, 9.963089) rotate(-15.000000) translate(-61.457977, -9.963089) "/>
                </g>
                <g id="Group-37-Copy-2" transform="translate(75.285465, 540.418618) scale(-1, 1) rotate(-186.000000) translate(-75.285465, -540.418618) translate(41.785465, 372.418618)">
                    <path d="M9.87249413,313.614137 C12.1884941,311.123137 12.2614941,308.195137 13.8194941,305.568137 C15.0154941,303.550137 17.1104941,301.716137 17.8724941,299.614137" id="Stroke-3" stroke="#F6BBD4" stroke-width="2" transform="translate(13.872494, 306.614137) rotate(-24.000000) translate(-13.872494, -306.614137) "/>
                    <path d="M28.7323,264.9411 L28.7323,254.9411 L28.7323,264.9411 Z" id="Fill-5" fill="#F6BBD4"/>
                    <path d="M22.4527978,274.653076 L22.4527978,264.653076" id="Stroke-7" stroke="#F6BBD4" stroke-width="2"/>
                    <path d="M1.78594317,335.509038 L5.39667964,324.855492" id="Stroke-7-Copy" stroke="#F6BBD4" stroke-width="2"/>
                    <path d="M34.7324,236.9411 C34.0284,232.4551 37.2924,230.7501 38.3974,226.9871 C39.6064,222.8751 37.1944,218.3381 40.7324,214.9411" id="Fill-9" fill="#F6BBD4"/>
                    <path d="M34.7324,236.9411 C34.0284,232.4551 37.2924,230.7501 38.3974,226.9871 C39.6064,222.8751 37.1944,218.3381 40.7324,214.9411" id="Stroke-11" stroke="#F6BBD4" stroke-width="2"/>
                    <path d="M48.7324,166.9411 C49.7334,160.0991 53.4824,154.0011 52.7324,146.9411" id="Fill-13" fill="#F6BBD4"/>
                    <path d="M48.7324,166.9411 C49.7334,160.0991 53.4824,154.0011 52.7324,146.9411" id="Stroke-15" stroke="#F6BBD4" stroke-width="2"/>
                    <path d="M52.7324,110.9411 C52.7634,108.4181 52.2214,105.4131 52.6294,102.9411 C53.1204,99.9611 55.2294,98.1571 54.7324,94.9411" id="Fill-17" fill="#F6BBD4"/>
                    <path d="M52.7324,110.9411 C52.7634,108.4181 52.2214,105.4131 52.6294,102.9411 C53.1204,99.9611 55.2294,98.1571 54.7324,94.9411" id="Stroke-19" stroke="#F6BBD4" stroke-width="2"/>
                    <path d="M56.7324,66.9411 C56.6594,62.9841 57.4974,60.5671 58.2944,56.9981 C59.0334,53.6881 57.4814,49.2221 60.7324,46.9411" id="Fill-21" fill="#F6BBD4"/>
                    <path d="M56.7324,66.9411 C56.6594,62.9841 57.4974,60.5671 58.2944,56.9981 C59.0334,53.6881 57.4814,49.2221 60.7324,46.9411" id="Stroke-23" stroke="#F6BBD4" stroke-width="2"/>
                    <path d="M62.7324,18.9411 C63.8904,12.9021 65.2234,6.9021 66.7324,0.9411" id="Fill-25" fill="#F6BBD4"/>
                    <path d="M59.4579771,18.9630894 C60.6159771,12.9240894 61.9489771,6.9240894 63.4579771,0.963089396" id="Stroke-27" stroke="#F6BBD4" stroke-width="2" transform="translate(61.457977, 9.963089) rotate(-15.000000) translate(-61.457977, -9.963089) "/>
                </g>
            </g>
        </g>
    </g>
</svg>