<svg width="222" height="65" viewBox="0 0 222 65" version="1.1" xmlns="http://www.w3.org/2000/svg" xmlns:xlink="http://www.w3.org/1999/xlink">
    <!-- Generator: sketchtool 55.2 (78181) - https://sketchapp.com -->
    <title>DD20DDDB-2C19-4956-BAE2-8D9A06E02AC4@1x</title>
    <desc>Created with sketchtool.</desc>
    <g id="UI-design" stroke="none" stroke-width="1" fill="none" fill-rule="evenodd">
        <g id="Homepage" transform="translate(-964.000000, -2848.000000)">
            <g id="Group-32" transform="translate(0.000000, 2849.000000)">
                <g id="Group-20" transform="translate(909.000000, 0.000000)">
                    <g id="Group-6-Copy-2" transform="translate(56.000000, 0.000000)">
                        <path d="M1.09420138,38.2867011 C1.16905621,38.0186645 1.24391103,37.7506279 1.31876585,37.4835914 C1.87357219,37.3755766 2.42727772,37.2655616 2.98098324,37.151546 C3.00520098,35.4533139 4.23700314,35.6193366 5.06480942,34.4861818 C6.41219623,32.6459303 7.2025751,30.3446158 8.57307884,28.4943629 C9.3095182,27.5012272 11.0564977,26.5310946 11.571675,25.3869383 C12.2057394,23.9777457 11.8457757,22.1424949 11.9646628,20.6222871 C12.1815216,17.8329059 13.2460012,15.7546219 15.0160976,13.4873121 C16.3976095,11.7180703 17.4290649,10.5369089 19.5227983,9.64978763 C25.6069543,7.07343554 32.6157875,5.38020414 39.1600805,4.66810683 C50.5622313,3.42793735 61.737616,1.6486942 73.1782951,0.821581164 C91.7676097,-0.523602668 111.383977,-0.291570959 129.854404,2.07375229 C141.879611,3.61396277 153.581181,6.45935162 165.588776,8.20459012 C173.893258,9.41275523 182.130591,11.6660632 190.081714,14.2644183 C193.806842,15.4805845 197.550684,15.5405927 200.932361,17.5838719 C203.755929,19.2911052 207.15742,21.3633884 209.438291,23.7057085 C214.335778,28.7383963 220.378103,35.0782627 219.970805,42.4312675 C219.844212,44.7185801 220.299946,47.490959 219.589926,49.6962604 C218.401055,53.3947658 213.870136,56.9032453 210.622758,58.7384961 C203.712997,62.6440298 195.07387,62.1019557 187.417763,62.4790073 C178.652043,62.9100662 169.707993,63.1240954 160.934567,62.9250682 C144.004167,62.5400156 127.111195,59.6636225 110.236936,58.7144928 C100.728172,58.1794197 91.38563,58.9415238 81.904386,58.9395236 C74.7029117,58.9365231 67.6247277,57.3393049 60.4078421,57.15728 C50.6811184,56.9132466 41.0303502,56.828235 31.4137071,55.4830512 C24.9035391,54.5719267 16.820319,56.3851745 10.6943324,54.4299073 C11.0895219,52.5876555 9.10036502,52.2056033 8.69967156,50.5633789 C8.19990553,48.5140988 9.90835679,47.439952 10.0580664,45.5997005 C10.2396995,43.3773968 9.01890536,40.8960577 7.19817187,40.4109914 C5.18369649,39.8729179 2.1410681,40.3209791 0,40.25397" id="Stroke-1" stroke="#12110C" stroke-width="2"/>
                        <path d="M38.224,34.728 L37.792,33.288 C37.6213325,32.7119971 37.4533342,32.1333362 37.288,31.552 C37.1226658,30.9706638 36.9600008,30.3866696 36.8,29.8 L36.736,29.8 C36.5866659,30.3973363 36.4293342,30.9839971 36.264,31.56 C36.0986658,32.1360029 35.9306675,32.7119971 35.76,33.288 L35.328,34.728 L38.224,34.728 Z M38.592,35.992 L34.944,35.992 L34.048,39 L32.416,39 L35.872,28.52 L37.728,28.52 L41.184,39 L39.488,39 L38.592,35.992 Z M42.464,31.176 L43.68,31.176 L43.808,32.2 L43.856,32.2 C44.0373342,31.8479982 44.2586654,31.5573345 44.52,31.328 C44.7813346,31.0986655 45.1359978,30.984 45.584,30.984 C46.3626706,30.984 46.847999,31.4266622 47.04,32.312 C47.2533344,31.9173314 47.4986653,31.5973346 47.776,31.352 C48.0533347,31.1066654 48.4106645,30.984 48.848,30.984 C49.3920027,30.984 49.8133318,31.1946646 50.112,31.616 C50.4106682,32.0373354 50.56,32.6426627 50.56,33.432 L50.56,39 L49.056,39 L49.056,33.56 C49.056,32.759996 48.8106691,32.36 48.32,32.36 C48.0746654,32.36 47.8613342,32.4479991 47.68,32.624 C47.4986658,32.8000009 47.3173342,33.0693315 47.136,33.432 L47.136,39 L45.888,39 L45.888,33.56 C45.888,32.759996 45.6320026,32.36 45.12,32.36 C44.8746654,32.36 44.6666675,32.4479991 44.496,32.624 C44.3253325,32.8000009 44.1493342,33.0693315 43.968,33.432 L43.968,39 L42.464,39 L42.464,31.176 Z M52.416,36.936 C52.416,36.4986645 52.519999,36.1146683 52.728,35.784 C52.936001,35.4533317 53.2613311,35.1706678 53.704,34.936 C54.1466689,34.7013322 54.7173298,34.5093341 55.416,34.36 C56.1146702,34.2106659 56.9546618,34.098667 57.936,34.024 C57.9146666,33.5439976 57.7573348,33.133335 57.464,32.792 C57.1706652,32.450665 56.6773368,32.28 55.984,32.28 C55.5039976,32.28 55.0373356,32.3706658 54.584,32.552 C54.1306644,32.7333342 53.7120019,32.9359989 53.328,33.16 L52.736,32.088 C52.9493344,31.9599994 53.189332,31.829334 53.456,31.696 C53.722668,31.562666 54.0079985,31.4426672 54.312,31.336 C54.6160015,31.2293328 54.930665,31.1440003 55.256,31.08 C55.581335,31.0159997 55.914665,30.984 56.256,30.984 C57.3440054,30.984 58.1599973,31.2773304 58.704,31.864 C59.2480027,32.4506696 59.52,33.2613282 59.52,34.296 L59.52,39 L58.224,39 L58.096,37.992 L58.048,37.992 C57.6319979,38.3120016 57.1653359,38.5919988 56.648,38.832 C56.1306641,39.0720012 55.6000027,39.192 55.056,39.192 C54.6826648,39.192 54.333335,39.1386672 54.008,39.032 C53.682665,38.9253328 53.4026678,38.7733343 53.168,38.576 C52.9333322,38.3786657 52.749334,38.1413347 52.616,37.864 C52.482666,37.5866653 52.416,37.277335 52.416,36.936 Z M53.952,36.824 C53.952,37.2186686 54.1039985,37.5013325 54.408,37.672 C54.7120015,37.8426675 55.0773312,37.928 55.504,37.928 C55.9200021,37.928 56.327998,37.8373342 56.728,37.656 C57.128002,37.4746658 57.5306646,37.2186683 57.936,36.888 L57.936,35.032 C57.1679962,35.0960003 56.5280026,35.1786662 56.016,35.28 C55.5039974,35.3813338 55.0960015,35.5093326 54.792,35.664 C54.4879985,35.8186674 54.2720006,35.991999 54.144,36.184 C54.0159994,36.376001 53.952,36.5893322 53.952,36.824 Z M61.936,38.152 L66.96,32.456 L62.512,32.456 L62.512,31.176 L69.2,31.176 L69.2,32.024 L64.16,37.72 L69.344,37.72 L69.344,39 L61.936,39 L61.936,38.152 Z M71.792,31.176 L76.88,31.176 L76.88,39 L75.296,39 L75.296,32.456 L71.792,32.456 L71.792,31.176 Z M75.952,29.688 C75.610665,29.688 75.3280011,29.5866677 75.104,29.384 C74.8799989,29.1813323 74.768,28.909335 74.768,28.568 C74.768,28.226665 74.8799989,27.952001 75.104,27.744 C75.3280011,27.535999 75.610665,27.432 75.952,27.432 C76.293335,27.432 76.5759989,27.535999 76.8,27.744 C77.0240011,27.952001 77.136,28.226665 77.136,28.568 C77.136,28.909335 77.0240011,29.1813323 76.8,29.384 C76.5759989,29.5866677 76.293335,29.688 75.952,29.688 Z M81.408,31.176 L82.704,31.176 L82.832,32.44 L82.896,32.44 C83.2906686,32.0346646 83.717331,31.6906681 84.176,31.408 C84.634669,31.1253319 85.167997,30.984 85.776,30.984 C86.6933379,30.984 87.3653312,31.2559973 87.792,31.8 C88.2186688,32.3440027 88.432,33.1279949 88.432,34.152 L88.432,39 L86.848,39 L86.848,34.36 C86.848,33.6773299 86.7253346,33.173335 86.48,32.848 C86.2346654,32.522665 85.8133363,32.36 85.216,32.36 C84.7999979,32.36 84.4266683,32.463999 84.096,32.672 C83.7653317,32.880001 83.3973354,33.1919979 82.992,33.608 L82.992,39 L81.408,39 L81.408,31.176 Z M92.016,40.216 C92.016,40.5893352 92.2213313,40.8906655 92.632,41.12 C93.0426687,41.3493345 93.6373294,41.464 94.416,41.464 C94.8320021,41.464 95.2079983,41.4240004 95.544,41.344 C95.8800017,41.2639996 96.1679988,41.157334 96.408,41.024 C96.6480012,40.890666 96.8319994,40.7386675 96.96,40.568 C97.0880006,40.3973325 97.152,40.216001 97.152,40.024 C97.152,39.682665 97.0106681,39.4560006 96.728,39.344 C96.4453319,39.2319994 96.0213362,39.176 95.456,39.176 L94.08,39.176 C93.8346654,39.176 93.616001,39.1680001 93.424,39.152 C93.231999,39.1359999 93.0506675,39.1013336 92.88,39.048 C92.5599984,39.2293342 92.3360006,39.415999 92.208,39.608 C92.0799994,39.800001 92.016,40.0026656 92.016,40.216 Z M90.672,40.408 C90.672,40.0986651 90.7813322,39.7973348 91,39.504 C91.2186678,39.2106652 91.5306646,38.9466678 91.936,38.712 L91.936,38.648 C91.7226656,38.5306661 91.5360008,38.368001 91.376,38.16 C91.2159992,37.951999 91.136,37.6826683 91.136,37.352 C91.136,37.0959987 91.2186658,36.8373346 91.384,36.576 C91.5493342,36.3146654 91.7813318,36.0826677 92.08,35.88 L92.08,35.816 C91.8026653,35.6133323 91.568001,35.3440017 91.376,35.008 C91.183999,34.6719983 91.088,34.2693357 91.088,33.8 C91.088,33.3626645 91.1733325,32.9706684 91.344,32.624 C91.5146675,32.2773316 91.7439986,31.9813346 92.032,31.736 C92.3200014,31.4906654 92.6533314,31.3040006 93.032,31.176 C93.4106686,31.0479994 93.8133312,30.984 94.24,30.984 C94.6773355,30.984 95.0719982,31.0479994 95.424,31.176 L98.64,31.176 L98.64,32.376 L96.688,32.376 C96.8480008,32.5466675 96.9919994,32.7573321 97.12,33.008 C97.2480006,33.2586679 97.312,33.5386651 97.312,33.848 C97.312,34.2746688 97.2320008,34.6533317 97.072,34.984 C96.9119992,35.3146683 96.6933347,35.5946655 96.416,35.824 C96.1386653,36.0533345 95.8133352,36.2266661 95.44,36.344 C95.0666648,36.4613339 94.6666688,36.52 94.24,36.52 C94.047999,36.52 93.8426678,36.4986669 93.624,36.456 C93.4053322,36.4133331 93.1893344,36.3493338 92.976,36.264 C92.6133315,36.4986678 92.432,36.7706651 92.432,37.08 C92.432,37.3680014 92.565332,37.5759994 92.832,37.704 C93.098668,37.8320006 93.4826642,37.896 93.984,37.896 L95.648,37.896 C96.672,37.896 97.4319975,38.0426652 97.928,38.336 C98.4240025,38.6293348 98.672,39.1119966 98.672,39.784 C98.672,40.1573352 98.568001,40.5093317 98.36,40.84 C98.151999,41.1706683 97.8560019,41.4613321 97.472,41.712 C97.0879981,41.9626679 96.6240027,42.1599993 96.08,42.304 C95.5359973,42.4480007 94.9280034,42.52 94.256,42.52 C93.1466611,42.52 92.2720032,42.3413351 91.632,41.984 C90.9919968,41.6266649 90.672,41.1013368 90.672,40.408 Z M94.24,35.496 C94.6880022,35.496 95.0719984,35.3466682 95.392,35.048 C95.7120016,34.7493318 95.872,34.333336 95.872,33.8 C95.872,33.2879974 95.7120016,32.8773349 95.392,32.568 C95.0719984,32.2586651 94.6880022,32.104 94.24,32.104 C93.7919978,32.104 93.4080016,32.2586651 93.088,32.568 C92.7679984,32.8773349 92.608,33.2879974 92.608,33.8 C92.608,34.333336 92.7679984,34.7493318 93.088,35.048 C93.4080016,35.3466682 93.7919978,35.496 94.24,35.496 Z M111.792,39.64 L111.792,42.2 L110.208,42.2 L110.208,31.176 L111.504,31.176 L111.632,32.136 L111.68,32.136 C112.032002,31.794665 112.437331,31.5173344 112.896,31.304 C113.354669,31.0906656 113.818664,30.984 114.288,30.984 C114.800003,30.984 115.255998,31.0773324 115.656,31.264 C116.056002,31.4506676 116.391999,31.7173316 116.664,32.064 C116.936001,32.4106684 117.143999,32.8293309 117.288,33.32 C117.432001,33.8106691 117.504,34.359997 117.504,34.968 C117.504,35.6400034 117.408001,36.2373307 117.216,36.76 C117.023999,37.2826693 116.765335,37.7226649 116.44,38.08 C116.114665,38.4373351 115.738669,38.711999 115.312,38.904 C114.885331,39.096001 114.442669,39.192 113.984,39.192 C113.621332,39.192 113.242669,39.1093342 112.848,38.944 C112.453331,38.7786658 112.085335,38.5413349 111.744,38.232 L111.792,39.64 Z M111.792,37.064 C112.122668,37.3626682 112.458665,37.5733327 112.8,37.696 C113.141335,37.8186673 113.434665,37.88 113.68,37.88 C114.309336,37.88 114.831998,37.6320025 115.248,37.136 C115.664002,36.6399975 115.872,35.9226714 115.872,34.984 C115.872,34.1626626 115.712002,33.5120024 115.392,33.032 C115.071998,32.5519976 114.560004,32.312 113.856,32.312 C113.535998,32.312 113.200002,32.3946658 112.848,32.56 C112.495998,32.7253342 112.144002,32.9946648 111.792,33.368 L111.792,37.064 Z M120.608,31.176 L121.92,31.176 L122.048,33 L122.096,33 C122.501335,32.3599968 122.994664,31.8640018 123.576,31.512 C124.157336,31.1599982 124.799996,30.984 125.504,30.984 C125.813335,30.984 126.085332,31.0079998 126.32,31.056 C126.554668,31.1040002 126.794665,31.1866661 127.04,31.304 L126.688,32.664 C126.421332,32.5786662 126.192001,32.5146669 126,32.472 C125.807999,32.4293331 125.562668,32.408 125.264,32.408 C124.698664,32.408 124.154669,32.5679984 123.632,32.888 C123.109331,33.2080016 122.629336,33.7626627 122.192,34.552 L122.192,39 L120.608,39 L120.608,31.176 Z M128.896,35.096 C128.896,34.4453301 129.002666,33.8640026 129.216,33.352 C129.429334,32.8399974 129.717332,32.4080018 130.08,32.056 C130.442668,31.7039982 130.858664,31.4373342 131.328,31.256 C131.797336,31.0746658 132.287997,30.984 132.8,30.984 C133.312003,30.984 133.802664,31.0746658 134.272,31.256 C134.741336,31.4373342 135.157332,31.7039982 135.52,32.056 C135.882668,32.4080018 136.170666,32.8399974 136.384,33.352 C136.597334,33.8640026 136.704,34.4453301 136.704,35.096 C136.704,35.7466699 136.597334,36.3253308 136.384,36.832 C136.170666,37.3386692 135.882668,37.7679982 135.52,38.12 C135.157332,38.4720018 134.741336,38.7386658 134.272,38.92 C133.802664,39.1013342 133.312003,39.192 132.8,39.192 C132.287997,39.192 131.797336,39.1013342 131.328,38.92 C130.858664,38.7386658 130.442668,38.4720018 130.08,38.12 C129.717332,37.7679982 129.429334,37.3386692 129.216,36.832 C129.002666,36.3253308 128.896,35.7466699 128.896,35.096 Z M130.528,35.096 C130.528,35.9386709 130.730665,36.6159974 131.136,37.128 C131.541335,37.6400026 132.095996,37.896 132.8,37.896 C133.504004,37.896 134.058665,37.6400026 134.464,37.128 C134.869335,36.6159974 135.072,35.9386709 135.072,35.096 C135.072,34.2533291 134.869335,33.5760026 134.464,33.064 C134.058665,32.5519974 133.504004,32.296 132.8,32.296 C132.095996,32.296 131.541335,32.5519974 131.136,33.064 C130.730665,33.5760026 130.528,34.2533291 130.528,35.096 Z M138.992,31.176 L144.08,31.176 L144.08,39.016 C144.08,39.4960024 144.026667,39.9413313 143.92,40.352 C143.813333,40.7626687 143.629335,41.1199985 143.368,41.424 C143.106665,41.7280015 142.760002,41.9653325 142.328,42.136 C141.895998,42.3066675 141.35467,42.392 140.704,42.392 C140.277331,42.392 139.869335,42.3413338 139.48,42.24 C139.090665,42.1386662 138.741335,42.0133341 138.432,41.864 L138.928,40.696 C139.51467,40.9733347 140.090664,41.112 140.656,41.112 C141.37067,41.112 141.855999,40.9386684 142.112,40.592 C142.368001,40.2453316 142.496,39.7520032 142.496,39.112 L142.496,32.456 L138.992,32.456 L138.992,31.176 Z M143.152,29.688 C142.810665,29.688 142.528001,29.5866677 142.304,29.384 C142.079999,29.1813323 141.968,28.909335 141.968,28.568 C141.968,28.226665 142.079999,27.952001 142.304,27.744 C142.528001,27.535999 142.810665,27.432 143.152,27.432 C143.493335,27.432 143.775999,27.535999 144,27.744 C144.224001,27.952001 144.336,28.226665 144.336,28.568 C144.336,28.909335 144.224001,29.1813323 144,29.384 C143.775999,29.5866677 143.493335,29.688 143.152,29.688 Z M148.24,35.096 C148.24,34.4559968 148.351999,33.8826692 148.576,33.376 C148.800001,32.8693308 149.098665,32.4373351 149.472,32.08 C149.845335,31.7226649 150.271998,31.4506676 150.752,31.264 C151.232002,31.0773324 151.727997,30.984 152.24,30.984 C152.816003,30.984 153.325331,31.0746658 153.768,31.256 C154.210669,31.4373342 154.586665,31.690665 154.896,32.016 C155.205335,32.341335 155.439999,32.7306644 155.6,33.184 C155.760001,33.6373356 155.84,34.1359973 155.84,34.68 C155.84,34.8400008 155.832,34.9919993 155.816,35.136 C155.8,35.2800007 155.781333,35.3999995 155.76,35.496 L149.872,35.496 C149.925334,36.2640038 150.210664,36.8639978 150.728,37.296 C151.245336,37.7280022 151.898663,37.944 152.688,37.944 C153.114669,37.944 153.511998,37.8853339 153.88,37.768 C154.248002,37.6506661 154.607998,37.4853344 154.96,37.272 L155.52,38.28 C155.114665,38.5360013 154.658669,38.7519991 154.152,38.928 C153.645331,39.1040009 153.088003,39.192 152.48,39.192 C151.89333,39.192 151.341336,39.0986676 150.824,38.912 C150.306664,38.7253324 149.856002,38.4560018 149.472,38.104 C149.087998,37.7519982 148.786668,37.3226692 148.568,36.816 C148.349332,36.3093308 148.24,35.7360032 148.24,35.096 Z M154.368,34.408 C154.368,33.7039965 154.186668,33.1653352 153.824,32.792 C153.461332,32.4186648 152.944003,32.232 152.272,32.232 C151.68533,32.232 151.162669,32.4186648 150.704,32.792 C150.245331,33.1653352 149.962667,33.7039965 149.856,34.408 L154.368,34.408 Z M158.016,35.096 C158.016,34.4453301 158.133332,33.8640026 158.368,33.352 C158.602668,32.8399974 158.922665,32.4080018 159.328,32.056 C159.733335,31.7039982 160.199997,31.4373342 160.728,31.256 C161.256003,31.0746658 161.818664,30.984 162.416,30.984 C163.056003,30.984 163.615998,31.0933322 164.096,31.312 C164.576002,31.5306678 164.975998,31.7946651 165.296,32.104 L164.528,33.112 C164.218665,32.8559987 163.898668,32.6560007 163.568,32.512 C163.237332,32.3679993 162.880002,32.296 162.496,32.296 C162.079998,32.296 161.696002,32.362666 161.344,32.496 C160.991998,32.629334 160.690668,32.8186654 160.44,33.064 C160.189332,33.3093346 159.994667,33.6053316 159.856,33.952 C159.717333,34.2986684 159.648,34.6799979 159.648,35.096 C159.648,35.5120021 159.714666,35.8933316 159.848,36.24 C159.981334,36.5866684 160.173332,36.8826654 160.424,37.128 C160.674668,37.3733346 160.970665,37.562666 161.312,37.696 C161.653335,37.829334 162.031998,37.896 162.448,37.896 C162.928002,37.896 163.359998,37.8053342 163.744,37.624 C164.128002,37.4426658 164.474665,37.2240013 164.784,36.968 L165.456,37.992 C165.007998,38.3760019 164.517336,38.671999 163.984,38.88 C163.450664,39.088001 162.896003,39.192 162.32,39.192 C161.711997,39.192 161.144003,39.1013342 160.616,38.92 C160.087997,38.7386658 159.632002,38.4720018 159.248,38.12 C158.863998,37.7679982 158.562668,37.3386692 158.344,36.832 C158.125332,36.3253308 158.016,35.7466699 158.016,35.096 Z M169.568,32.456 L167.424,32.456 L167.424,31.256 L169.632,31.176 L169.84,29.016 L171.152,29.016 L171.152,31.176 L174.848,31.176 L174.848,32.456 L171.152,32.456 L171.152,35.912 C171.152,36.5840034 171.287999,37.0853317 171.56,37.416 C171.832001,37.7466683 172.32533,37.912 173.04,37.912 C173.381335,37.912 173.698665,37.882667 173.992,37.824 C174.285335,37.765333 174.565332,37.6826672 174.832,37.576 L175.152,38.744 C174.799998,38.8613339 174.410669,38.9653329 173.984,39.056 C173.557331,39.1466671 173.120002,39.192 172.672,39.192 C172.095997,39.192 171.608002,39.1120008 171.208,38.952 C170.807998,38.7919992 170.488001,38.5680014 170.248,38.28 C170.007999,37.9919986 169.834667,37.648002 169.728,37.248 C169.621333,36.847998 169.568,36.4026691 169.568,35.912 L169.568,32.456 Z M177.824,36.952 C178.272002,37.2613349 178.741331,37.5093324 179.232,37.696 C179.722669,37.8826676 180.29333,37.976 180.944,37.976 C181.616003,37.976 182.106665,37.8746677 182.416,37.672 C182.725335,37.4693323 182.88,37.2133349 182.88,36.904 C182.88,36.6159986 182.693335,36.3653344 182.32,36.152 C181.946665,35.9386656 181.328004,35.7253344 180.464,35.512 C180.079998,35.4159995 179.709335,35.2986674 179.352,35.16 C178.994665,35.0213326 178.682668,34.8586676 178.416,34.672 C178.149332,34.4853324 177.936001,34.2773345 177.776,34.048 C177.615999,33.8186655 177.536,33.5600014 177.536,33.272 C177.536,32.9413317 177.607999,32.6373347 177.752,32.36 C177.896001,32.0826653 178.111999,31.8426677 178.4,31.64 C178.688001,31.4373323 179.039998,31.2773339 179.456,31.16 C179.872002,31.0426661 180.351997,30.984 180.896,30.984 C181.51467,30.984 182.103997,31.087999 182.664,31.296 C183.224003,31.504001 183.701331,31.741332 184.096,32.008 L183.36,33 C183.007998,32.7653322 182.629335,32.5733341 182.224,32.424 C181.818665,32.2746659 181.381336,32.2 180.912,32.2 C180.250663,32.2 179.789335,32.295999 179.528,32.488 C179.266665,32.680001 179.136,32.9146653 179.136,33.192 C179.136,33.4906682 179.349331,33.735999 179.776,33.928 C180.202669,34.120001 180.751997,34.3013325 181.424,34.472 C182.405338,34.7173346 183.159997,35.0133316 183.688,35.36 C184.216003,35.7066684 184.48,36.1893302 184.48,36.808 C184.48,37.1386683 184.400001,37.4479986 184.24,37.736 C184.079999,38.0240014 183.848002,38.2773322 183.544,38.496 C183.239998,38.7146678 182.866669,38.8853327 182.424,39.008 C181.981331,39.1306673 181.472003,39.192 180.896,39.192 C180.14933,39.192 179.445337,39.0720012 178.784,38.832 C178.122663,38.5919988 177.552002,38.3066683 177.072,37.976 L177.824,36.952 Z M189.664,29.944 L189.616,28.28 L191.184,28.28 L191.136,29.944 L190.928,35.192 L189.872,35.192 L189.664,29.944 Z M189.12,37.848 C189.12,37.4426646 189.245332,37.1200012 189.496,36.88 C189.746668,36.6399988 190.047998,36.52 190.4,36.52 C190.752002,36.52 191.053332,36.6399988 191.304,36.88 C191.554668,37.1200012 191.68,37.4426646 191.68,37.848 C191.68,38.2533354 191.554668,38.5786654 191.304,38.824 C191.053332,39.0693346 190.752002,39.192 190.4,39.192 C190.047998,39.192 189.746668,39.0693346 189.496,38.824 C189.245332,38.5786654 189.12,38.2533354 189.12,37.848 Z" id="Amazingprojects!" fill="#12110C" fill-rule="nonzero"/>
                    </g>
                </g>
            </g>
        </g>
    </g>
</svg>